<svg xmlns="http://www.w3.org/2000/svg" viewBox="0 0 64 64">
  <defs>
    <linearGradient id="background" x1="10" y1="6" x2="56" y2="60" gradientUnits="userSpaceOnUse">
      <stop stop-color="#947AF3"/>
      <stop offset="1" stop-color="#5B3DC7"/>
    </linearGradient>
  </defs>
  <rect width="64" height="64" rx="18" fill="url(#background)"/>
  <path
    d="M30.5 15.5a8 8 0 0 0-7.7 6A7 7 0 0 0 17 28.4c0 2.2 1 4.2 2.6 5.5A7.5 7.5 0 0 0 24 47.3V50h7V38h-4.2a4.8 4.8 0 0 1-4.8-4.8c0-.7.1-1.3.4-1.9l.7-1.8-1.2-1.4a3 3 0 0 1 2.6-5l2 .3.3-2a4 4 0 0 1 3.7-3.4v-2.5Zm3 0a8 8 0 0 1 7.7 6 7 7 0 0 1 5.8 6.9c0 2.2-1 4.2-2.6 5.5A7.5 7.5 0 0 1 40 47.3V50h-7V38h4.2a4.8 4.8 0 0 0 4.8-4.8c0-.7-.1-1.3-.4-1.9l-.7-1.8 1.2-1.4a3 3 0 0 0-2.6-5l-2 .3-.3-2a4 4 0 0 0-3.7-3.4v-2.5Z"
    fill="white"
  />
  <path d="M26 26.5h12M26 32h12" stroke="#6B4AD2" stroke-width="3" stroke-linecap="round"/>
</svg>
